<svg width="512" height="512" viewBox="0 0 512 512" fill="none" xmlns="http://www.w3.org/2000/svg">
<path d="M400.758 135.009L403.568 135.299C432.708 160.719 453.028 195.559 456.618 234.919C456.688 235.689 456.458 236.499 456.188 237.329C455.918 238.159 455.508 238.999 455.068 239.799C455.548 245.859 454.978 251.149 455.028 256.889C455.198 276.089 454.898 294.699 452.908 313.859C446.868 372.019 421.508 401.219 364.878 414.779L358.068 454.219C356.598 462.739 348.068 469.649 338.798 469.669L184.958 469.899C175.378 469.909 165.588 464.419 163.918 454.999L156.708 414.239C76.3482 394.339 66.6282 337.159 66.6782 263.839L66.6982 238.949C66.2482 238.189 65.8382 237.409 65.5482 236.589C65.2582 235.769 65.0482 235.039 65.0982 234.289C67.4182 199.079 88.4082 159.729 115.258 137.079C115.808 136.609 116.568 136.369 117.358 136.139C118.148 135.909 119.038 135.799 119.908 135.729C137.178 121.359 156.788 111.069 177.988 103.929C229.008 86.7393 284.368 86.5393 335.878 101.679C360.268 108.849 380.688 120.959 400.738 134.989L400.758 135.009Z" fill="#7B7B7B"/>
<path d="M119.918 135.739C88.998 161.479 69.738 197.989 66.698 238.959C35.548 232.279 12.478 208.499 7.52798 176.099C3.65798 150.719 7.26798 124.789 16.898 100.889C29.498 69.6494 56.098 48.4794 89.088 42.3094C93.118 41.5594 96.728 42.1794 99.308 44.9394C102.028 47.8494 102.798 51.9694 100.928 56.0494C92.668 74.0794 89.928 94.4794 96.058 113.299C99.888 125.059 108.438 133.599 119.908 135.749L119.918 135.739Z" fill="url(#paint0_linear_3096_799)"/>
<path d="M455.058 239.81C452.278 204.67 438.098 172.26 412.818 146.97C408.688 142.84 404.318 139.68 400.758 135.01C409.118 130.96 414.798 122.92 417.548 113.33C422.938 94.4995 420.418 74.3995 412.398 56.6295C410.598 52.6495 410.748 48.8395 413.298 45.7295C415.848 42.6195 419.388 41.4095 423.758 42.2695C454.628 48.2995 479.978 67.7995 492.828 96.8395C504.658 123.57 508.918 153.75 503.498 182.24C498.378 209.51 480.688 231.23 455.058 239.82V239.81Z" fill="url(#paint1_linear_3096_799)"/>
<path d="M217.828 290.8C223.458 307.17 218.908 325.18 207.668 338C196.748 350.47 180.168 356.97 163.038 354.32C143.158 351.25 127.948 336.65 122.888 318.72C117.158 298.41 124.158 277.6 140.478 264.89C161.838 283.48 188.598 292.29 217.828 290.81V290.8Z" fill="url(#paint2_linear_3096_799)"/>
<path d="M354.458 354.78C337.518 355.92 322.668 348.39 313.078 336.81C302.298 323.8 298.818 306.76 303.858 290.24C332.898 292.81 360.818 285.09 383.688 266.84C399.458 281.12 404.878 301.93 397.928 321.7C391.748 339.27 375.238 353.38 354.458 354.78Z" fill="url(#paint3_linear_3096_799)"/>
<path d="M228.708 176.59C218.438 199.61 192.018 212.33 168.238 206.69C147.678 201.81 137.058 181.9 144.818 162.28C154.228 138.47 181.128 124.56 206.098 130.43C215.858 132.72 223.798 138.98 227.648 145.98C233.028 155.78 233.338 166.22 228.708 176.6V176.59Z" fill="#FEFEFE" fill-opacity="0.5"/>
<path d="M283.188 372.88C275.498 377.11 267.898 366.77 263.198 361.32C258.188 368.1 250.908 376.75 243.368 372.84C240.988 371.61 239.028 368.49 238.938 364.86C238.638 353.32 250.418 343.18 258.658 336.7C261.628 334.37 265.178 334.38 268.148 336.7C274.118 341.36 279.658 346.35 283.928 352.66C288.198 358.97 290.328 368.94 283.188 372.87V372.88Z" fill="#7D0000"/>
<defs>
<linearGradient id="paint0_linear_3096_799" x1="62.959" y1="42.0156" x2="62.959" y2="238.959" gradientUnits="userSpaceOnUse">
<stop stop-color="#FF0000"/>
<stop offset="1" stop-color="#4D0000"/>
</linearGradient>
<linearGradient id="paint1_linear_3096_799" x1="453.29" y1="42" x2="453.29" y2="239.82" gradientUnits="userSpaceOnUse">
<stop stop-color="#FF0000"/>
<stop offset="1" stop-color="#4D0000"/>
</linearGradient>
<linearGradient id="paint2_linear_3096_799" x1="170.578" y1="264.89" x2="170.578" y2="354.905" gradientUnits="userSpaceOnUse">
<stop offset="0.317308" stop-color="#FF0000"/>
<stop offset="1" stop-color="#480000"/>
</linearGradient>
<linearGradient id="paint3_linear_3096_799" x1="351.246" y1="266.84" x2="351.246" y2="354.894" gradientUnits="userSpaceOnUse">
<stop offset="0.317308" stop-color="#FF0000"/>
<stop offset="1" stop-color="#480000"/>
</linearGradient>
</defs>
</svg>
